HIERARCHY
ROOT RootJoint
{
    OFFSET   0.000000   0.000000   0.000000
    CHANNELS 6 Xposition Yposition Zposition Xrotation Yrotation Zrotation
    JOINT pelvis_lowerback
    {
        OFFSET   0.000000   0.093605   0.000000
        CHANNELS 3 Xrotation Yrotation Zrotation
        JOINT lowerback_torso
        {
            OFFSET   0.000000   0.100000   0.000000
            CHANNELS 3 Xrotation Yrotation Zrotation
            JOINT torso_head
            {
                OFFSET   0.000000   0.282350   0.000000
                CHANNELS 3 Xrotation Yrotation Zrotation
                End Site
                {
                    OFFSET   0.000000   0.192650   0.000000
                }
            }
            JOINT rTorso_Clavicle
            {
                OFFSET  -0.001000   0.157500   0.000000
                CHANNELS 3 Xrotation Yrotation Zrotation
                JOINT rShoulder
                {
                    OFFSET  -0.117647   0.000000   0.000000
                    CHANNELS 3 Xrotation Yrotation Zrotation
                    JOINT rElbow
                    {
                        OFFSET  -0.245000   0.000000   0.000000
                        CHANNELS 3 Xrotation Yrotation Zrotation
                        JOINT rWrist
                        {
                            OFFSET  -0.240000   0.000000   0.000000
                            CHANNELS 3 Xrotation Yrotation Zrotation
                            End Site
                            {
                                OFFSET  -0.116353  -0.002500   0.000000
                            }
                        }
                    }
                }
            }
            JOINT lTorso_Clavicle
            {
                OFFSET   0.001000   0.157500   0.000000
                CHANNELS 3 Xrotation Yrotation Zrotation
                JOINT lShoulder
                {
                    OFFSET   0.117647   0.000000   0.000000
                    CHANNELS 3 Xrotation Yrotation Zrotation
                    JOINT lElbow
                    {
                        OFFSET   0.245000   0.000000   0.000000
                        CHANNELS 3 Xrotation Yrotation Zrotation
                        JOINT lWrist
                        {
                            OFFSET   0.240000   0.000000   0.000000
                            CHANNELS 3 Xrotation Yrotation Zrotation
                            End Site
                            {
                                OFFSET   0.116353  -0.002500   0.000000
                            }
                        }
                    }
                }
            }
        }
    }
    JOINT rHip
    {
        OFFSET  -0.100000  -0.051395   0.000000
        CHANNELS 3 Xrotation Yrotation Zrotation
        JOINT rKnee
        {
            OFFSET   0.000000  -0.410000   0.000000
            CHANNELS 3 Xrotation Yrotation Zrotation
            JOINT rAnkle
            {
                OFFSET   0.000000  -0.390000   0.000000
                CHANNELS 3 Xrotation Yrotation Zrotation
                JOINT rToeJoint
                {
                    OFFSET   0.000000  -0.050000   0.130000
                    CHANNELS 3 Xrotation Yrotation Zrotation
                    End Site
                    {
                        OFFSET  -0.010000   0.002000   0.060000
                    }
                }
            }
        }
    }
    JOINT lHip
    {
        OFFSET   0.100000  -0.051395   0.000000
        CHANNELS 3 Xrotation Yrotation Zrotation
        JOINT lKnee
        {
            OFFSET   0.000000  -0.410000   0.000000
            CHANNELS 3 Xrotation Yrotation Zrotation
            JOINT lAnkle
            {
                OFFSET   0.000000  -0.390000   0.000000
                CHANNELS 3 Xrotation Yrotation Zrotation
                JOINT lToeJoint
                {
                    OFFSET   0.000000  -0.050000   0.130000
                    CHANNELS 3 Xrotation Yrotation Zrotation
                    End Site
                    {
                        OFFSET   0.010000   0.002000   0.060000
                    }
                }
            }
        }
    }
}
MOTION
Frames: 14
Frame Time:   0.008333
 -2.376719   0.925631   3.975860   0.000000   0.000000   0.000000   0.000000   0.000000   0.000000   0.000000   0.000000   0.000000   0.000000   0.000000   0.000000   0.000000   0.000000   0.000000   0.000000   0.000000   0.000000   0.000000   0.000000   0.000000   0.000000   0.000000   0.000000   0.000000   0.000000   0.000000   0.000000   0.000000   0.000000   0.000000   0.000000   0.000000   0.000000   0.000000   0.000000   0.000000   0.000000   0.000000   0.000000   0.000000   0.000000   0.000000   0.000000   0.000000   0.000000   0.000000   0.000000   0.000000   0.000000   0.000000   0.000000   0.000000   0.000000   0.000000   0.000000   0.000000   0.000000   0.000000   0.000000
 -2.376652   0.926013   3.976048  -0.107032  -0.022053  -0.132687   0.057358   0.057490   0.141904   0.025013  -0.138976   0.063607  -0.076999   0.135169   0.045557   0.186672  -0.320106  -0.022235   0.719945   0.381619   2.219764   0.026669   1.336465  -0.010591   0.173100  -0.710596  -2.667864   0.171561   0.368467  -0.137932   0.864331  -0.081665  -2.221209   0.029303  -1.458674   0.013195   0.236875   0.598768   2.714183  -0.038508   0.173528   0.039318   0.602016   0.000496   0.000793  -0.708473  -0.203350  -0.022756  -0.229706  -0.000231   0.000103  -0.056057  -0.144474   0.246766   0.655911  -0.000660  -0.000948  -0.902361   0.028215   0.084565   0.265116  -0.000458  -0.000320
 -2.376545   0.926706   3.976384  -0.250950  -0.065905  -0.282474   0.075058   0.117768   0.302116   0.046039  -0.266952   0.149626  -0.145326   0.262854   0.103664   0.367275  -0.541225   0.598913   1.406726   0.876462   4.946869   0.061520   2.649439  -0.017636   0.374807  -0.971262  -4.683690   0.343720   0.651333  -0.937380   1.706406  -0.270223  -4.973770   0.067107  -2.879588   0.022266   0.508590   0.765288   4.751149  -0.023758   0.341848   0.003849   1.247162   0.001462   0.001311  -1.372602  -0.394135  -0.046449  -0.487438  -0.000653   0.000225  -0.059725  -0.285586   0.590814   1.357540  -0.001751  -0.001858  -1.747147   0.054152   0.164947   0.468223  -0.000853  -0.000534
 -2.376404   0.927347   3.976819  -0.393783  -0.122957  -0.429394   0.055988   0.177638   0.463167   0.039261  -0.382020   0.240644  -0.217498   0.381670   0.162742   0.537106  -0.685586   1.628998   2.051769   1.448112   8.004699   0.095784   3.894142  -0.021661   0.574685  -1.047880  -5.952923   0.508257   0.858948  -2.140408   2.520270  -0.543871  -8.064843   0.103987  -4.222971   0.027899   0.776206   0.764748   6.027456   0.015677   0.497142  -0.111600   1.869081   0.002623   0.001523  -1.992328  -0.573073  -0.071105  -0.729952  -0.001131   0.000341  -0.040161  -0.416243   0.994169   2.033181  -0.002970  -0.002523  -2.535163   0.078247   0.240922   0.650448  -0.001213  -0.000682
 -2.376240   0.927673   3.977320  -0.527603  -0.188838  -0.570022   0.011231   0.235527   0.621147   0.008337  -0.486851   0.332248  -0.293343   0.492420   0.219477   0.698488  -0.781622   2.900373   2.653823   2.080115  11.285727   0.125442   5.065358  -0.023667   0.768591  -1.041535  -6.660636   0.665714   1.016623  -3.573178   3.306156  -0.890060 -11.380685   0.135722  -5.485658   0.031233   1.035157   0.689720   6.739688   0.068723   0.640389  -0.295003   2.457136   0.003791   0.001520  -2.571163  -0.740858  -0.096465  -0.957530  -0.001601   0.000438  -0.008863  -0.536851   1.440458   2.670990  -0.004151  -0.002948  -3.271018   0.100585   0.312615   0.812582  -0.001507  -0.000770
 -2.376062   0.927493   3.977860  -0.651572  -0.261655  -0.703861  -0.050007   0.290524   0.774805  -0.038766  -0.583348   0.423206  -0.370401   0.595705   0.273001   0.852980  -0.848252   4.299755   3.211417   2.761050  14.716055   0.148899   6.162874  -0.024390   0.954057  -0.998248  -6.982003   0.816590   1.141971  -5.120952   4.062948  -1.299470 -14.844601   0.160699  -6.668566   0.033078   1.283142   0.581412   7.068179   0.130162   0.772882  -0.533111   3.010598   0.004854   0.001375  -3.111860  -0.898036  -0.122213  -1.170274  -0.002023   0.000513   0.029125  -0.648266   1.918189   3.270067  -0.005201  -0.003181  -3.958264   0.121243   0.380200   0.957015  -0.001728  -0.000814
 -2.375876   0.926664   3.978422  -0.766287  -0.340823  -0.830924  -0.120816   0.342184   0.923643  -0.095179  -0.672807   0.513032  -0.446678   0.692051   0.323179   1.001584  -0.896800   5.751354   3.722861   3.483033  18.245520   0.165943   7.188782  -0.024329   1.129701  -0.941870  -7.048363   0.961238   1.245718  -6.708051   4.788686  -1.765602 -18.404801   0.178761  -7.774552   0.033981   1.518959   0.461064   7.145999   0.196615   0.895718  -0.814046   3.530601   0.005753   0.001141  -3.616891  -1.045149  -0.148068  -1.368337  -0.002372   0.000568   0.070919  -0.751332   2.417767   3.831743  -0.006074  -0.003270  -4.600067   0.140302   0.443864   1.086228  -0.001878  -0.000826
 -2.375593   0.924531   3.978513  -0.740823  -0.447538  -0.905785  -0.189952   0.422668   1.095537  -0.192763  -0.760973   0.501516  -0.673946   0.682191   0.333604   1.199302  -0.882918   6.466658   4.430181   4.363469  22.011750   0.180520   8.329001  -0.029309   1.230757  -0.943427  -6.280310   1.245942   1.333894  -7.517444   5.313919  -2.303792 -22.135021   0.194117  -9.033071   0.036603   1.679005   0.318036   6.367284   0.108428   0.823251  -1.121266   3.900918   0.005806   0.000218  -3.796805  -1.264857   0.040085  -1.358557  -0.001880   0.000421   0.040668  -0.678613   2.793016   3.765106  -0.004680  -0.002614  -4.884506   0.215283   0.655115   1.258334  -0.002270  -0.000576
 -2.375106   0.923834   3.978591  -0.732147  -0.534942  -0.628032  -0.211770   0.501228   1.005549  -0.267756  -0.837854   0.369029  -0.891732   0.668012   0.325121   1.377960  -0.816504   7.185536   5.027074   5.267984  25.530114   0.187393   9.411159  -0.032810   1.352114  -0.849631  -5.484409   1.500553   1.375982  -8.258819   5.762593  -2.862704 -25.566111   0.200202 -10.219751   0.037962   1.845311   0.093553   5.625490   0.066418   0.745556  -1.721847   4.214342   0.005496  -0.000368  -3.955427  -1.475688   0.212821  -1.274261  -0.001384   0.000063  -0.087809  -0.508077   2.472363   3.974972  -0.003666  -0.001919  -4.709347   0.363850   0.704518   1.445008  -0.001827  -0.000072
 -2.374940   0.923436   3.978650  -0.693509  -0.667426  -0.456995  -0.230040   0.604415   1.022586  -0.337441  -0.884560   0.270584  -1.093800   0.655320   0.310315   1.531674  -0.716815   7.774593   5.523120   6.171766  28.773187   0.187395  10.434619  -0.034899   1.477873  -0.684518  -4.718366   1.732029   1.397710  -8.881007   6.146404  -3.421970 -28.739346   0.198576 -11.336573   0.038266   2.009406  -0.176382   4.928864  -0.006074   0.676185  -2.096581   4.499807   0.004864  -0.000861  -4.104458  -1.672224   0.373621  -1.205023  -0.001074  -0.000190  -0.178554  -0.407588   2.268700   4.102874  -0.002903  -0.001563  -4.716306   0.440886   0.854643   1.628289  -0.001648   0.000028
 -2.375009   0.923157   3.978681  -0.624952  -0.800469  -0.324110  -0.240487   0.708836   1.069558  -0.404831  -0.917456   0.201487  -1.282016   0.643358   0.299029   1.662236  -0.600487   8.261482   5.931186   7.055623  31.757835   0.182453  11.398233  -0.035863   1.603052  -0.479756  -4.050499   1.940138   1.405052  -9.395497   6.472358  -3.969669 -31.657718   0.191486 -12.383819   0.037705   2.168211  -0.463455   4.331131  -0.094198   0.609368  -2.348853   4.757780   0.004122  -0.001180  -4.244694  -1.855102   0.524112  -1.150553  -0.000869  -0.000335  -0.265263  -0.328435   2.119670   4.170681  -0.002316  -0.001280  -4.768525   0.504707   1.007942   1.784521  -0.001503   0.000047
 -2.375251   0.922926   3.978698  -0.532123  -0.915263  -0.200198  -0.242232   0.808696   1.126960  -0.467710  -0.944190   0.148801  -1.456599   0.632020   0.289540   1.773893  -0.478887   8.662720   6.264600   7.907279  34.507645   0.174182  12.302624  -0.035968   1.724819  -0.256437  -3.484274   2.126687   1.403100  -9.816603   6.747939  -4.498958 -34.341086   0.180841 -13.364327   0.036454   2.320636  -0.754402   3.837109  -0.184799   0.545933  -2.528321   4.993314   0.003379  -0.001333  -4.376028  -2.025514   0.664666  -1.104707  -0.000725  -0.000408  -0.358004  -0.259565   1.993004   4.199636  -0.001853  -0.001034  -4.841043   0.561655   1.155647   1.924543  -0.001375   0.000062
 -2.375629   0.922715   3.978715  -0.419222  -1.005124  -0.073753  -0.236299   0.902972   1.189235  -0.524822  -0.967446   0.106697  -1.618114   0.621349   0.280933   1.870551  -0.359000   8.991123   6.535418   8.719290  37.043747   0.163833  13.149429  -0.035424   1.841804  -0.028311  -3.008966   2.294622   1.396659 -10.158867   6.980670  -5.004890 -36.810652   0.168079 -14.281167   0.034666   2.466297  -1.041306   3.435791  -0.270752   0.486194  -2.658776   5.210852   0.002685  -0.001360  -4.498688  -2.184408   0.795813  -1.064469  -0.000621  -0.000436  -0.459369  -0.197394   1.874956   4.200953  -0.001482  -0.000828  -4.924076   0.613657   1.295449   2.051474  -0.001259   0.000086
 -2.376199   0.922430   3.978895  -0.360698  -1.095276   0.103223  -0.194117   0.977899   1.142598  -0.538797  -0.927993   0.122086  -1.741870   0.489478   0.257147   1.911557  -0.297965   8.947044   6.807210   9.475479  39.146119   0.150382  14.028664  -0.034949   1.931406   0.318423  -1.858665   2.428482   1.411095 -10.099999   7.151820  -5.506731 -38.982416   0.153364 -15.257739   0.032655   2.557227  -1.339095   2.522994  -0.208392   0.392177  -2.793091   5.135561   0.002188  -0.000969  -4.520359  -2.240520   0.842154  -0.856408  -0.000654  -0.000777  -0.456861  -0.155748   1.716622   4.135888  -0.001173  -0.000635  -4.997790   0.735470   1.428961   2.101818  -0.001072   0.000104
